
<?xml version="1.0" encoding="UTF-8"?>
<svg xmlns="http://www.w3.org/2000/svg" xmlns:xlink="http://www.w3.org/1999/xlink" width="40px" height="25px" viewBox="0 0 40 25" version="1.1">
<defs>
<clipPath id="clip1">
  <path d="M 7.171875 7.066406 L 17 7.066406 L 17 17.847656 L 7.171875 17.847656 Z M 7.171875 7.066406 "/>
</clipPath>
<clipPath id="clip2">
  <path d="M 7.171875 12.464844 L 17 7.085938 L 17 17.847656 Z M 7.171875 12.464844 "/>
</clipPath>
<clipPath id="clip3">
  <path d="M 23 7.085938 L 32.828125 7.085938 L 32.828125 17.867188 L 23 17.867188 Z M 23 7.085938 "/>
</clipPath>
<clipPath id="clip4">
  <path d="M 32.828125 12.464844 L 23 17.847656 L 23 7.085938 Z M 32.828125 12.464844 "/>
</clipPath>
<clipPath id="clip5">
  <path d="M 1.632812 1.390625 L 38.398438 1.390625 L 38.398438 23.542969 L 1.632812 23.542969 Z M 1.632812 1.390625 "/>
</clipPath>
<clipPath id="clip6">
  <path d="M 18.972656 23.195312 L 1.996094 13.078125 C 1.78125 12.949219 1.648438 12.71875 1.648438 12.464844 C 1.648438 12.214844 1.78125 11.984375 1.996094 11.855469 L 18.972656 1.738281 C 19.605469 1.359375 20.394531 1.359375 21.027344 1.738281 L 38 11.855469 C 38.214844 11.984375 38.347656 12.214844 38.347656 12.464844 C 38.347656 12.71875 38.214844 12.949219 38 13.078125 L 21.027344 23.195312 C 20.394531 23.574219 19.605469 23.574219 18.972656 23.195312 Z M 18.972656 23.195312 "/>
</clipPath>
<clipPath id="clip7">
  <path d="M 11.464844 9.867188 L 21.601562 9.867188 L 21.601562 15.601562 L 11.464844 15.601562 Z M 11.464844 9.867188 "/>
</clipPath>
<clipPath id="clip8">
  <path d="M 11.738281 16.316406 L 11.289062 10.660156 L 21.15625 9.875 L 21.605469 15.53125 Z M 11.738281 16.316406 "/>
</clipPath>
<clipPath id="clip9">
  <path d="M 11.589844 13.398438 L 20.867188 9.914062 C 20.933594 9.886719 21.007812 9.894531 21.070312 9.933594 C 21.128906 9.972656 21.167969 10.035156 21.171875 10.105469 L 21.585938 15.300781 C 21.589844 15.371094 21.5625 15.441406 21.511719 15.488281 C 21.457031 15.535156 21.386719 15.554688 21.316406 15.539062 L 11.605469 13.5625 C 11.566406 13.554688 11.539062 13.523438 11.535156 13.484375 C 11.53125 13.449219 11.554688 13.410156 11.589844 13.398438 Z M 11.589844 13.398438 "/>
</clipPath>
<clipPath id="clip10">
  <path d="M 18.398438 9.332031 L 28.535156 9.332031 L 28.535156 15.066406 L 18.398438 15.066406 Z M 18.398438 9.332031 "/>
</clipPath>
<clipPath id="clip11">
  <path d="M 28.257812 8.617188 L 28.707031 14.273438 L 18.84375 15.058594 L 18.394531 9.402344 Z M 28.257812 8.617188 "/>
</clipPath>
<clipPath id="clip12">
  <path d="M 28.40625 11.535156 L 19.128906 15.019531 C 19.0625 15.046875 18.988281 15.039062 18.929688 15 C 18.871094 14.960938 18.832031 14.898438 18.824219 14.828125 L 18.414062 9.632812 C 18.40625 9.5625 18.433594 9.492188 18.488281 9.445312 C 18.542969 9.398438 18.613281 9.378906 18.683594 9.394531 L 28.394531 11.371094 C 28.433594 11.378906 28.460938 11.410156 28.464844 11.445312 C 28.464844 11.484375 28.441406 11.519531 28.40625 11.535156 Z M 28.40625 11.535156 "/>
</clipPath>
</defs>
<g id="surface1">
<g clip-path="url(#clip1)" clip-rule="nonzero">
<g clip-path="url(#clip2)" clip-rule="nonzero">
<path style=" stroke:none;fill-rule:nonzero;fill:rgb(100%,100%,100%);fill-opacity:1;" d="M 7.171875 17.847656 L 7.171875 7.09375 L 17 7.09375 L 17 17.847656 Z M 7.171875 17.847656 "/>
</g>
</g>
<g clip-path="url(#clip3)" clip-rule="nonzero">
<g clip-path="url(#clip4)" clip-rule="nonzero">
<path style=" stroke:none;fill-rule:nonzero;fill:rgb(100%,100%,100%);fill-opacity:1;" d="M 32.828125 7.085938 L 32.828125 17.839844 L 23 17.839844 L 23 7.085938 Z M 32.828125 7.085938 "/>
</g>
</g>
<g clip-path="url(#clip5)" clip-rule="nonzero">
<g clip-path="url(#clip6)" clip-rule="nonzero">
<path style=" stroke:none;fill-rule:nonzero;fill:rgb(27.058825%,5.098039%,50.980395%);fill-opacity:1;" d="M 39.027344 23.808594 L 1.011719 23.808594 L 1.011719 1.125 L 39.027344 1.125 Z M 39.027344 23.808594 "/>
</g>
</g>
<g clip-path="url(#clip7)" clip-rule="nonzero">
<g clip-path="url(#clip8)" clip-rule="nonzero">
<g clip-path="url(#clip9)" clip-rule="nonzero">
<path style=" stroke:none;fill-rule:nonzero;fill:rgb(27.058825%,61.56863%,23.921569%);fill-opacity:1;" d="M 11.542969 16.398438 L 11.082031 10.609375 L 21.148438 9.808594 L 21.609375 15.597656 Z M 11.542969 16.398438 "/>
</g>
</g>
</g>
<g clip-path="url(#clip10)" clip-rule="nonzero">
<g clip-path="url(#clip11)" clip-rule="nonzero">
<g clip-path="url(#clip12)" clip-rule="nonzero">
<path style=" stroke:none;fill-rule:nonzero;fill:rgb(29.019609%,74.117649%,25.098041%);fill-opacity:1;" d="M 28.457031 8.53125 L 28.917969 14.324219 L 18.847656 15.125 L 18.390625 9.332031 Z M 28.457031 8.53125 "/>
</g>
</g>
</g>
</g>
</svg>
